<svg width="47" height="47" viewBox="0 0 47 47" fill="none" xmlns="http://www.w3.org/2000/svg">
<path d="M8.52142 7.32614C8.32741 7.12963 8.01084 7.1276 7.81433 7.32161C7.61782 7.51561 7.61579 7.83219 7.80979 8.0287L10.1028 10.3513C10.2968 10.5478 10.6134 10.5498 10.8099 10.3558C11.0064 10.1618 11.0084 9.84523 10.8144 9.64872L8.52142 7.32614ZM24.1433 1C24.1433 0.723858 23.9195 0.5 23.6433 0.5C23.3672 0.5 23.1433 0.723858 23.1433 1V4.77419C23.1433 5.05034 23.3672 5.27419 23.6433 5.27419C23.9195 5.27419 24.1433 5.05034 24.1433 4.77419V1ZM7.80979 38.9713C7.61579 39.1678 7.61782 39.4844 7.81433 39.6784C8.01084 39.8724 8.32741 39.8704 8.52142 39.6739L11.101 37.061C11.295 36.8644 11.293 36.5479 11.0965 36.3539C10.9 36.1599 10.5834 36.1619 10.3894 36.3584L7.80979 38.9713ZM1 22.8548C0.723858 22.8548 0.5 23.0787 0.5 23.3548C0.5 23.631 0.723858 23.8548 1 23.8548H5.29936C5.57551 23.8548 5.79936 23.631 5.79936 23.3548C5.79936 23.0787 5.57551 22.8548 5.29936 22.8548H1ZM41.7006 22.8548C41.4245 22.8548 41.2006 23.0787 41.2006 23.3548C41.2006 23.631 41.4245 23.8548 41.7006 23.8548H46C46.2761 23.8548 46.5 23.631 46.5 23.3548C46.5 23.0787 46.2761 22.8548 46 22.8548H41.7006ZM37.4705 36.6487C37.2765 36.4522 36.9599 36.4502 36.7634 36.6442C36.5669 36.8382 36.5648 37.1548 36.7588 37.3513L39.0518 39.6739C39.2458 39.8704 39.5624 39.8724 39.7589 39.6784C39.9554 39.4844 39.9575 39.1678 39.7635 38.9713L37.4705 36.6487ZM24.1433 42.2258C24.1433 41.9497 23.9195 41.7258 23.6433 41.7258C23.3672 41.7258 23.1433 41.9497 23.1433 42.2258V46C23.1433 46.2761 23.3672 46.5 23.6433 46.5C23.9195 46.5 24.1433 46.2761 24.1433 46V42.2258ZM36.4722 9.93904C36.2782 10.1356 36.2802 10.4521 36.4767 10.6461C36.6733 10.8401 36.9898 10.8381 37.1838 10.6416L39.7635 8.0287C39.9575 7.83219 39.9554 7.51561 39.7589 7.32161C39.5624 7.1276 39.2458 7.12963 39.0518 7.32614L36.4722 9.93904ZM23.6433 35.7581C30.4157 35.7581 35.8949 30.1989 35.8949 23.3548C35.8949 16.5108 30.4157 10.9516 23.6433 10.9516C16.8709 10.9516 11.3917 16.5108 11.3917 23.3548C11.3917 30.1989 16.8709 35.7581 23.6433 35.7581Z" stroke="black" stroke-linecap="round"/>
</svg>
