<svg width="163" height="21" viewBox="0 0 163 21" fill="none" xmlns="http://www.w3.org/2000/svg">
<path d="M19.8232 19.4526C17.8264 20.1525 15.4283 20.5025 12.6288 20.5025C9.45872 20.5025 6.85474 20.1422 4.81685 19.4218C1.60562 18.3102 0 16.3855 0 13.6477V13.5242C0 12.9684 0.463154 12.5362 1.01894 12.5362H1.60561C2.1614 12.5362 2.62456 12.9684 2.62456 13.5242C2.62456 16.7149 5.97989 18.3102 12.6905 18.3102C14.8519 18.3102 16.7046 18.094 18.2484 17.6618C20.3687 17.0648 21.4288 16.1385 21.4288 14.8828C21.4288 14.0388 21.0788 13.4007 20.379 12.9684C19.8026 12.6185 18.8248 12.2994 17.4456 12.0112C16.684 11.8671 14.7799 11.5687 11.7333 11.1158C8.27509 10.6012 5.94901 10.1174 4.75509 9.66456C2.1614 8.71766 0.864558 7.27673 0.864558 5.34175C0.864558 1.78058 4.53895 0 11.8877 0C15.6136 0 18.4234 0.504335 20.3172 1.51299C22.0669 2.48048 23.1064 3.92141 23.4358 5.8358C23.5284 6.45334 23.0653 7.04 22.4477 7.04H21.7993C21.3053 7.04 20.9039 6.66949 20.8112 6.20633C20.6671 5.42411 20.4201 4.78598 20.0702 4.29194C19.5762 3.65381 18.8248 3.18035 17.8161 2.87158C16.4987 2.41871 14.5226 2.19229 11.8877 2.19229C6.28866 2.19229 3.48912 3.2421 3.48912 5.34175C3.48912 6.30924 4.1993 7.0503 5.61965 7.56492C6.66947 7.95603 8.50153 8.32657 11.1158 8.67651C15.9738 9.29405 19.2262 9.95275 20.873 10.6526C23.0138 11.5378 24.0842 12.9787 24.0842 14.9754C24.0842 16.9928 22.6639 18.4852 19.8232 19.4526Z" fill="black"/>
<path d="M37.3615 3.39664V19.2675C37.3615 19.8542 36.8983 20.2865 36.3425 20.2865H35.7558C35.2001 20.2865 34.7369 19.8542 34.7369 19.2675V3.39664C34.7369 2.84085 34.3046 2.3777 33.7488 2.3777H25.3811C24.8253 2.3777 24.3622 1.94541 24.3622 1.38962V1.20437C24.3622 0.648579 24.8253 0.185425 25.3811 0.185425H46.7173C47.2731 0.185425 47.7362 0.648579 47.7362 1.20437V1.38962C47.7362 1.94541 47.2731 2.3777 46.7173 2.3777H38.3495C37.7937 2.3777 37.3615 2.84085 37.3615 3.39664Z" fill="black"/>
<path fill-rule="evenodd" clip-rule="evenodd" d="M69.3811 9.6956C68.8253 10.0661 68.8253 10.8998 69.3811 11.3321C70.5544 12.2172 71.1411 13.4215 71.1411 14.9447V19.2675C71.1411 19.8542 70.678 20.2865 70.1222 20.2865H69.5046C68.9488 20.2865 68.5165 19.8542 68.5165 19.2675V15.0374C68.5165 12.8142 66.1287 11.7026 61.353 11.7026H51.9664C51.4106 11.7026 50.9474 12.1349 50.9474 12.6907V19.2675C50.9474 19.8542 50.5151 20.2865 49.9593 20.2865H49.3727C48.786 20.2865 48.3537 19.8542 48.3537 19.2675V1.20437C48.3537 0.648579 48.786 0.185425 49.3727 0.185425H61.7236C68.2695 0.185425 71.5425 2.01747 71.5425 5.68156C71.5425 7.3901 70.822 8.72812 69.3811 9.6956ZM61.8162 2.3777H51.9664C51.4106 2.3777 50.9474 2.84085 50.9474 3.39664V8.42962C50.9474 8.98541 51.4106 9.44859 51.9664 9.44859H61.1678C63.1851 9.44859 64.8833 9.21185 66.2625 8.7384C68.0328 8.07968 68.9179 7.09162 68.9179 5.77419C68.9179 3.50986 66.5507 2.3777 61.8162 2.3777Z" fill="black"/>
<path d="M93.8358 19.1749C91.9626 20.0601 89.3277 20.5026 85.9312 20.5026C78.0061 20.5026 74.0435 17.8678 74.0435 12.598V1.20437C74.0435 0.648579 74.5066 0.185425 75.0624 0.185425H75.6491C76.2049 0.185425 76.6681 0.648579 76.6681 1.20437V12.598C76.6681 16.4062 79.7558 18.3103 85.9312 18.3103C92.1067 18.3103 95.1944 16.4371 95.1944 12.6907V1.20437C95.1944 0.648579 95.6266 0.185425 96.1824 0.185425H96.8C97.3558 0.185425 97.788 0.648579 97.788 1.20437V12.6598C97.788 15.7269 96.4706 17.8986 93.8358 19.1749Z" fill="black"/>
<path d="M127.924 19.2675V7.47244C127.924 6.48437 126.689 6.08296 126.103 6.88576L116.839 19.8542C116.654 20.1321 116.345 20.2865 116.006 20.2865H115.172C114.863 20.2865 114.554 20.1321 114.369 19.8542L105.044 6.85489C104.488 6.08296 103.223 6.48438 103.223 7.44157V19.2675C103.223 19.8542 102.759 20.2865 102.204 20.2865H101.617C101.061 20.2865 100.598 19.8542 100.598 19.2675V1.20437C100.598 0.648579 101.061 0.185425 101.617 0.185425H102.821C103.13 0.185425 103.439 0.3398 103.624 0.617694L114.771 16.1798C115.172 16.7356 116.006 16.7356 116.407 16.1798L127.585 0.617694C127.77 0.3398 128.079 0.185425 128.387 0.185425H129.53C130.086 0.185425 130.549 0.648579 130.549 1.20437V19.2675C130.549 19.8542 130.086 20.2865 129.53 20.2865H128.943C128.387 20.2865 127.924 19.8542 127.924 19.2675Z" fill="black"/>
<path d="M133.39 19.2675V1.20437C133.39 0.648579 133.853 0.185425 134.408 0.185425H134.995C135.551 0.185425 136.014 0.648579 136.014 1.20437V19.2675C136.014 19.8542 135.551 20.2865 134.995 20.2865H134.408C133.853 20.2865 133.39 19.8542 133.39 19.2675Z" fill="black"/>
<path d="M159.851 20.0703L150.156 12.0423C149.785 11.7335 149.26 11.7335 148.89 12.0423L139.102 20.0703C138.917 20.2247 138.7 20.2865 138.453 20.2865H137.898C136.94 20.2865 136.508 19.1131 137.249 18.4956L146.636 10.7454C147.13 10.344 147.13 9.60296 146.636 9.20155L137.836 1.9763C137.095 1.38963 137.527 0.185425 138.453 0.185425H139.133C139.38 0.185425 139.596 0.278053 139.781 0.432439L148.89 7.9356C149.26 8.24437 149.785 8.24437 150.156 7.9356L159.388 0.432439C159.543 0.278053 159.79 0.185425 160.006 0.185425H160.623C161.58 0.185425 162.013 1.38963 161.272 1.9763L152.441 9.20155C151.947 9.60296 151.947 10.344 152.441 10.7454L161.704 18.4956C162.414 19.1131 162.013 20.2865 161.056 20.2865H160.5C160.253 20.2865 160.037 20.1938 159.851 20.0703Z" fill="black"/>
</svg>
