<svg width="23" height="23" viewBox="0 0 23 23" fill="none" xmlns="http://www.w3.org/2000/svg">
<path d="M19 4.83784C19 5.85285 18.1867 6.67567 17.1835 6.67567C16.1803 6.67567 15.3671 5.85285 15.3671 4.83784C15.3671 3.82283 16.1803 3 17.1835 3C18.1867 3 19 3.82283 19 4.83784Z" fill="black"/>
<path d="M7.63303 11.5C7.63303 12.515 6.81978 13.3378 5.81658 13.3378C4.81338 13.3378 4.00012 12.515 4.00012 11.5C4.00012 10.485 4.81338 9.66216 5.81658 9.66216C6.81978 9.66216 7.63303 10.485 7.63303 11.5Z" fill="black"/>
<path d="M19 18.1622C19 19.1772 18.1867 20 17.1835 20C16.1803 20 15.3671 19.1772 15.3671 18.1622C15.3671 17.1472 16.1803 16.3243 17.1835 16.3243C18.1867 16.3243 19 17.1472 19 18.1622Z" fill="black"/>
<path d="M17.1835 4.83784L5.81658 11.5L17.1835 18.1622M19 4.83784C19 5.85285 18.1867 6.67567 17.1835 6.67567C16.1803 6.67567 15.3671 5.85285 15.3671 4.83784C15.3671 3.82283 16.1803 3 17.1835 3C18.1867 3 19 3.82283 19 4.83784ZM7.63303 11.5C7.63303 12.515 6.81978 13.3378 5.81658 13.3378C4.81338 13.3378 4.00012 12.515 4.00012 11.5C4.00012 10.485 4.81338 9.66216 5.81658 9.66216C6.81978 9.66216 7.63303 10.485 7.63303 11.5ZM19 18.1622C19 19.1772 18.1867 20 17.1835 20C16.1803 20 15.3671 19.1772 15.3671 18.1622C15.3671 17.1472 16.1803 16.3243 17.1835 16.3243C18.1867 16.3243 19 17.1472 19 18.1622Z" stroke="black"/>
</svg>
