<svg width="237" height="107" viewBox="0 0 237 107" fill="none" xmlns="http://www.w3.org/2000/svg">
<g clip-path="url(#clip0_71_5)">
<path d="M57.3667 100.061C54.8519 100.943 51.8315 101.383 48.3056 101.383C44.313 101.383 41.0334 100.93 38.4667 100.022C34.4222 98.6222 32.4 96.1981 32.4 92.7499V92.5944C32.4 91.8944 32.9834 91.3499 33.6834 91.3499H34.4222C35.1222 91.3499 35.7056 91.8944 35.7056 92.5944C35.7056 96.6129 39.9315 98.6221 48.3834 98.6221C51.1056 98.6221 53.4389 98.3499 55.3834 97.8055C58.0537 97.0536 59.3889 95.887 59.3889 94.3055C59.3889 93.2425 58.9482 92.4388 58.0667 91.8944C57.3408 91.4536 56.1093 91.0518 54.3722 90.6888C53.413 90.5073 51.0148 90.1314 47.1778 89.561C42.8222 88.9129 39.8926 88.3036 38.3889 87.7333C35.1222 86.5407 33.4889 84.7258 33.4889 82.2888C33.4889 77.8036 38.1167 75.561 47.3722 75.561C52.0648 75.561 55.6037 76.1962 57.9889 77.4666C60.1926 78.6851 61.5019 80.4999 61.9167 82.911C62.0334 83.6888 61.45 84.4277 60.6722 84.4277H59.8556C59.2334 84.4277 58.7278 83.961 58.6111 83.3777C58.4297 82.3925 58.1185 81.5888 57.6778 80.9666C57.0556 80.1629 56.1093 79.5666 54.8389 79.1777C53.1796 78.6073 50.6908 78.3222 47.3722 78.3222C40.3204 78.3222 36.7945 79.6444 36.7945 82.2888C36.7945 83.5073 37.6889 84.4407 39.4778 85.0888C40.8 85.5814 43.1074 86.0481 46.4 86.4888C52.5185 87.2666 56.6148 88.0962 58.6889 88.9777C61.3852 90.0925 62.7334 91.9073 62.7334 94.4221C62.7334 96.9629 60.9445 98.8425 57.3667 100.061Z" fill="#CD181E"/>
<path d="M79.4555 79.8389V99.8278C79.4555 100.567 78.8722 101.111 78.1722 101.111H77.4333C76.7333 101.111 76.15 100.567 76.15 99.8278V79.8389C76.15 79.1389 75.6055 78.5555 74.9055 78.5555H64.3666C63.6666 78.5555 63.0833 78.0111 63.0833 77.3111V77.0778C63.0833 76.3778 63.6666 75.7944 64.3666 75.7944H91.2389C91.9389 75.7944 92.5222 76.3778 92.5222 77.0778V77.3111C92.5222 78.0111 91.9389 78.5555 91.2389 78.5555H80.7C80 78.5555 79.4555 79.1389 79.4555 79.8389Z" fill="#CD181E"/>
<path fill-rule="evenodd" clip-rule="evenodd" d="M119.783 87.7722C119.083 88.2389 119.083 89.2889 119.783 89.8333C121.261 90.9481 122 92.4648 122 94.3833V99.8278C122 100.567 121.417 101.111 120.717 101.111H119.939C119.239 101.111 118.694 100.567 118.694 99.8278V94.5C118.694 91.7 115.687 90.3 109.672 90.3H97.85C97.15 90.3 96.5666 90.8444 96.5666 91.5444V99.8278C96.5666 100.567 96.0222 101.111 95.3222 101.111H94.5833C93.8444 101.111 93.3 100.567 93.3 99.8278V77.0778C93.3 76.3778 93.8444 75.7944 94.5833 75.7944H110.139C118.383 75.7944 122.506 78.1018 122.506 82.7167C122.506 84.8685 121.598 86.5537 119.783 87.7722ZM110.256 78.5555H97.85C97.15 78.5555 96.5666 79.1389 96.5666 79.8389V86.1777C96.5666 86.8777 97.15 87.4611 97.85 87.4611H109.439C111.98 87.4611 114.119 87.1629 115.856 86.5666C118.085 85.737 119.2 84.4926 119.2 82.8333C119.2 79.9815 116.218 78.5555 110.256 78.5555Z" fill="#CD181E"/>
<path d="M150.583 99.7111C148.224 100.826 144.906 101.383 140.628 101.383C130.646 101.383 125.656 98.0648 125.656 91.4277V77.0778C125.656 76.3778 126.239 75.7944 126.939 75.7944H127.678C128.378 75.7944 128.961 76.3778 128.961 77.0778V91.4277C128.961 96.224 132.85 98.6222 140.628 98.6222C148.406 98.6222 152.294 96.263 152.294 91.5444V77.0778C152.294 76.3778 152.839 75.7944 153.539 75.7944H154.317C155.017 75.7944 155.561 76.3778 155.561 77.0778V91.5055C155.561 95.3685 153.902 98.1037 150.583 99.7111Z" fill="#CD181E"/>
<path d="M193.517 99.8278V84.9722C193.517 83.7278 191.961 83.2222 191.222 84.2333L179.556 100.567C179.322 100.917 178.933 101.111 178.506 101.111H177.456C177.067 101.111 176.678 100.917 176.444 100.567L164.7 84.1944C164 83.2222 162.406 83.7278 162.406 84.9333V99.8278C162.406 100.567 161.822 101.111 161.122 101.111H160.383C159.683 101.111 159.1 100.567 159.1 99.8278V77.0778C159.1 76.3778 159.683 75.7944 160.383 75.7944H161.9C162.289 75.7944 162.678 75.9889 162.911 76.3389L176.95 95.9389C177.456 96.6389 178.506 96.6389 179.011 95.9389L193.089 76.3389C193.322 75.9889 193.711 75.7944 194.1 75.7944H195.539C196.239 75.7944 196.822 76.3778 196.822 77.0778V99.8278C196.822 100.567 196.239 101.111 195.539 101.111H194.8C194.1 101.111 193.517 100.567 193.517 99.8278Z" fill="#CD181E"/>
<path d="M200.4 99.8278V77.0778C200.4 76.3778 200.983 75.7944 201.683 75.7944H202.422C203.122 75.7944 203.706 76.3778 203.706 77.0778V99.8278C203.706 100.567 203.122 101.111 202.422 101.111H201.683C200.983 101.111 200.4 100.567 200.4 99.8278Z" fill="#CD181E"/>
<path d="M233.728 100.839L221.517 90.7278C221.05 90.3389 220.389 90.3389 219.922 90.7278L207.594 100.839C207.361 101.033 207.089 101.111 206.778 101.111H206.078C204.872 101.111 204.328 99.6333 205.261 98.8555L217.083 89.0944C217.706 88.5889 217.706 87.6555 217.083 87.15L206 78.05C205.067 77.3111 205.611 75.7944 206.778 75.7944H207.633C207.944 75.7944 208.217 75.9111 208.45 76.1055L219.922 85.5555C220.389 85.9444 221.05 85.9444 221.517 85.5555L233.144 76.1055C233.339 75.9111 233.65 75.7944 233.922 75.7944H234.7C235.906 75.7944 236.45 77.3111 235.517 78.05L224.394 87.15C223.772 87.6555 223.772 88.5889 224.394 89.0944L236.061 98.8555C236.956 99.6333 236.45 101.111 235.244 101.111H234.544C234.233 101.111 233.961 100.994 233.728 100.839Z" fill="#CD181E"/>
<path d="M53.0889 65.2555C53.0889 65.2555 71.0944 54.7944 84.0444 54.7944C96.9944 54.8333 160.306 72.5277 174.344 65.5277C198.65 53.3555 179.517 63.3111 192.7 53.2777C205.883 43.2444 201.022 45.5777 211.406 40.4444C221.789 35.2722 231.9 28.6611 232.056 27.5722C232.367 25.3944 191.494 -1.71116 168.433 2.9944C147.706 7.23329 153.189 1.16662 126.55 7.73884C99.9111 14.3111 80 28.4277 68.7611 39.0055C57.4833 49.5444 44.7667 67.3166 44.7667 67.3166L53.0889 65.2555Z" fill="#CD181E"/>
<path d="M236.256 27.65C236.217 27.3 236.061 26.9111 235.711 26.5611C216.033 6.26108 184.183 -0.116689 156.883 1.04998C127.211 2.33331 98.5889 13.3389 75.0611 31.3444C68.7611 36.1666 62.85 41.3778 57.3278 47.0555C52.2722 52.3055 47.6056 57.8666 45.2722 64.8278C45.1685 64.8537 45.0778 64.8926 45 64.9444C32.1667 72.2944 21.5889 83.0277 14.6278 96.0944C13.4611 98.3111 16.8056 100.294 17.9722 98.0778C24.6222 85.5555 34.6556 75.3277 46.9445 68.2889C47.1389 68.1722 47.2945 68.0555 47.4111 67.9C47.9945 67.7444 48.5 67.3555 48.7333 66.6166C50.7945 59.9666 55.3056 54.7166 60.0889 49.8166C64.6778 45.0722 69.5778 40.6389 74.7111 36.5166C85.6 27.8055 97.7333 20.5333 110.644 15.2055C136.894 4.39442 166.489 1.67219 194.1 8.67219C207.672 12.1333 220.856 17.8111 231.083 27.4944C211.133 33.3666 198.533 52.1111 180.139 61.1333C152.606 74.6278 122.894 56.2333 94.9334 54.2889C83.0722 53.4722 67.5945 56.3111 56.2778 62.5722C70.2389 48.1833 92.9111 36.5166 111.967 30.6444C124.722 26.7166 137.867 24.1111 151.244 23.8C164.856 23.45 178.428 25.1611 191.806 27.7277C194.256 28.1944 195.306 24.4222 192.817 23.9555C179.128 21.35 165.206 19.5611 151.244 19.9111C137.517 20.2222 124.022 22.8666 110.956 26.9111C88.5167 33.7944 67.2444 44.5666 51.9222 62.8055C49.9778 65.1 46.7889 65.7611 48.15 67.55C49.3945 69.2222 52 67.3167 53.75 66.4611C66.5056 60.2778 80.7778 57.2055 94.9334 58.1778C109.672 59.1889 123.672 64.4 138.022 67.3944C151.05 70.1555 165.05 71.3222 177.728 66.3833C187.333 62.65 195.422 56.0777 203.278 49.5444C212.883 41.5333 222.644 33.2111 235.167 30.45C236.606 30.1389 236.839 28.6611 236.256 27.65Z" fill="#050505"/>
<path d="M236.489 103.133C234.856 103.133 67.6333 103.056 66.1556 103.017H66.1167L21.8222 103.794H21.7056C21.2389 103.872 20.2278 103.95 18.9444 103.989C8.95 104.144 3.31111 100.255 3.15556 92.9833C3.07778 89.2888 5.45 81.6277 17.1556 65.8777C23.0667 57.9444 29.1333 51.0222 30.8444 49.0777L31.1167 48.7277L30.6111 18.1611L27.8889 18.1999C25.0111 18.2777 22.6 15.5944 22.5222 12.2499C22.5222 10.6166 23.0278 9.06104 24.0389 7.89438C25.0111 6.7666 26.2944 6.14439 27.6944 6.1055L56.8222 5.59993C56.8481 5.59993 56.8741 5.59993 56.9 5.59993C59.7778 5.59993 62.1111 8.28327 62.1889 11.5888C62.1889 13.2222 61.6833 14.7388 60.6722 15.9055C59.7 17.0333 58.4167 17.6944 57.0167 17.6944L55.1111 17.7333L55.6167 50.0499H57.95L57.4833 20.0277C59.3889 19.8722 61.1 18.9777 62.4222 17.461C63.8222 15.8277 64.5611 13.7277 64.5222 11.5499C64.4444 6.96105 61.0222 3.2666 56.9 3.2666C56.8482 3.2666 56.8093 3.2666 56.7833 3.2666L27.6556 3.77216C25.5944 3.81105 23.6889 4.74438 22.2889 6.37771C20.8889 7.97216 20.15 10.0722 20.1889 12.2888C20.2667 16.8777 23.6889 20.5333 27.8111 20.5333C27.863 20.5333 27.9019 20.5333 27.9278 20.5333H28.3167L28.7833 47.8722C26.7222 50.2055 20.9667 56.8944 15.2889 64.4777C5.56667 77.5444 0.666669 87.1499 0.822225 93.0222C1.01667 101.383 7.55 106.322 18.3611 106.322C18.5685 106.322 18.7759 106.322 18.9833 106.322C20.3444 106.283 21.3556 106.167 21.9 106.128L66.0778 105.35C71.0944 105.389 235.244 105.467 236.528 105.467L236.489 103.133Z" fill="black"/>
</g>
<defs>
<clipPath id="clip0_71_5">
<rect width="237" height="107" fill="white"/>
</clipPath>
</defs>
</svg>
