<svg width="269" height="257" viewBox="0 0 269 257" fill="none" xmlns="http://www.w3.org/2000/svg">
<path d="M0 0H187C225.66 0 257 31.3401 257 70V257H70C31.3401 257 0 225.66 0 187V0Z" fill="#FFB30F"/>
<path d="M179 201.258L64.2673 202.609H64.0658C63.26 202.745 61.5141 202.88 59.2982 202.947C42.0406 203.217 32.3038 196.463 32.0352 183.831C31.9009 177.414 35.9971 164.108 56.2093 136.751C66.4161 122.971 76.8915 110.948 79.8461 107.571L80.3161 106.963L79.4432 53.8706L74.7427 53.9381C69.7736 54.0732 65.6103 49.4125 65.476 43.6034C65.476 40.7664 66.3489 38.0645 68.0948 36.0381C69.7736 34.0792 71.9895 32.9985 74.4069 32.931L124.702 32.0528H124.837C129.806 32.0528 133.835 36.7136 133.969 42.4551C133.969 45.2921 133.096 47.9264 131.35 49.9528C129.671 51.9117 127.456 53.06 125.038 53.06L121.748 53.1276L122.621 109.259H126.65L125.844 57.1128C129.134 56.8426 132.089 55.2891 134.372 52.6547C136.789 49.8177 138.065 46.1702 137.998 42.3876C137.864 34.417 131.955 28 124.837 28H124.635L74.3398 28.8781C70.7808 28.9457 67.4905 30.5668 65.0731 33.4038C62.6557 36.1732 61.3798 39.8208 61.447 43.6709C61.5813 51.6415 67.4905 57.9909 74.6084 57.9909H74.8098H75.4813L76.2871 105.477C72.7282 109.529 62.79 121.148 52.9861 134.319C36.1985 157.015 27.7376 173.699 28.0062 183.899C28.342 198.422 39.6232 207 58.2909 207H59.3653C61.7156 206.932 63.4615 206.73 64.4016 206.662L179 205.379V201.258Z" fill="black"/>
<path d="M95.8579 183.503C95.8579 183.503 104.618 166.005 114.795 159.333C124.992 152.691 183.864 133.976 191.29 121.242C204.119 99.1535 194.212 116.835 199.403 102.158C204.594 87.4808 201.976 91.8191 207.491 82.4352C212.987 73.0208 217.526 62.6158 217.088 61.68C216.21 59.8083 170.124 59.5662 154.425 75.1459C140.32 89.1567 141.503 81.564 123.955 100.454C106.406 119.344 98.0317 140.697 94.6494 154.8C91.2165 168.892 90.3796 189.411 90.3796 189.411L95.8579 183.503Z" fill="#CC171E"/>
<path d="M220.428 59.5775C220.218 59.3225 219.895 59.097 219.44 59.0023C193.516 53.1882 165.2 64.5865 144.347 79.5692C121.689 95.8658 104.866 119.262 95.6532 145.534C93.1868 152.569 91.2264 159.71 89.812 167.017C88.5439 173.748 87.7418 180.522 89.4947 187.195C89.4265 187.269 89.3753 187.346 89.3409 187.427C83.0424 199.815 80.2598 213.7 81.5216 227.555C81.7469 229.898 85.3971 229.733 85.1719 227.39C83.946 214.123 86.5613 200.916 92.5921 189.053C92.6848 188.861 92.747 188.689 92.7585 188.507C93.1368 188.084 93.3337 187.518 93.1364 186.817C91.3298 180.529 92.17 174.079 93.4045 167.764C94.5663 161.671 96.1328 155.663 98.0431 149.779C102.112 137.323 107.901 125.356 115.302 114.517C130.361 92.4964 152.216 75.109 177.521 66.3838C189.971 62.1108 203.257 59.7802 216.284 62.1201C203.631 77.0137 203.387 98.236 193.58 114.804C178.895 139.594 146.068 140.447 123.092 153.326C113.35 158.795 102.649 169.001 96.9815 179.752C100.54 161.251 112.346 140.401 124.296 125.969C132.296 116.31 141.284 107.49 151.637 100.353C162.153 93.0646 173.701 87.4164 185.536 82.5408C187.702 81.6452 186.584 78.1398 184.387 79.0554C172.287 84.0608 160.424 89.8282 149.633 97.2965C139.005 104.614 129.763 113.645 121.578 123.556C107.49 140.526 96.3229 159.952 93.6788 182.179C93.3329 184.984 91.1675 187.147 93.1588 187.851C94.9984 188.524 96.0642 185.684 96.9987 184.11C103.837 172.679 113.47 162.911 125.096 156.382C137.2 149.582 150.887 146.464 163.707 141.424C175.368 136.881 186.971 130.585 194.39 120.172C200.015 112.289 202.986 102.956 205.793 93.7745C209.214 82.5298 212.597 70.9606 221.015 62.3389C221.986 61.353 221.408 60.0715 220.428 59.5775Z" fill="black"/>
</svg>
