<svg width="95" height="36" viewBox="0 0 95 36" fill="none" xmlns="http://www.w3.org/2000/svg">
<g clip-path="url(#clip0_1330_17)">
<path d="M22.995 33.6654C21.987 33.9619 20.7763 34.1102 19.3629 34.1102C17.7625 34.1102 16.4479 33.9576 15.4191 33.6523C13.7979 33.1812 12.9873 32.3657 12.9873 31.2055V31.1532C12.9873 30.9177 13.2211 30.7345 13.5017 30.7345H13.7979C14.0785 30.7345 14.3123 30.9177 14.3123 31.1532C14.3123 32.5052 16.0063 33.1812 19.3941 33.1812C20.4853 33.1812 21.4206 33.0897 22.2 32.9065C23.2704 32.6535 23.8056 32.261 23.8056 31.7289C23.8056 31.3713 23.629 31.1009 23.2756 30.9177C22.9846 30.7694 22.491 30.6342 21.7947 30.5121C21.4102 30.451 20.4489 30.3245 18.9109 30.1326C17.165 29.9146 15.9907 29.7096 15.3879 29.5177C14.0785 29.1164 13.4238 28.5059 13.4238 27.6859C13.4238 26.1769 15.2788 25.4224 18.9888 25.4224C20.8698 25.4224 22.2884 25.6361 23.2445 26.0635C24.1278 26.4735 24.6526 27.084 24.8189 27.8953C24.8656 28.1569 24.6318 28.4055 24.32 28.4055H23.9927C23.7433 28.4055 23.5406 28.2485 23.4939 28.0523C23.4211 27.7208 23.2964 27.4504 23.1197 27.2411C22.8703 26.9707 22.491 26.77 21.9818 26.6392C21.3167 26.4473 20.319 26.3513 18.9888 26.3513C16.1621 26.3513 14.7488 26.7962 14.7488 27.6859C14.7488 28.0959 15.1073 28.4099 15.8244 28.628C16.3544 28.7937 17.2793 28.9507 18.5991 29.099C21.0517 29.3607 22.6937 29.6398 23.525 29.9364C24.6058 30.3115 25.1462 30.9221 25.1462 31.7682C25.1462 32.623 24.4292 33.2554 22.995 33.6654Z" fill="#CD181E"/>
<path d="M31.8492 26.8617V33.587C31.8492 33.8356 31.6154 34.0187 31.3348 34.0187H31.0386C30.758 34.0187 30.5242 33.8356 30.5242 33.587V26.8617C30.5242 26.6262 30.306 26.4299 30.0254 26.4299H25.8009C25.5203 26.4299 25.2865 26.2468 25.2865 26.0113V25.9328C25.2865 25.6972 25.5203 25.501 25.8009 25.501H36.5725C36.8531 25.501 37.0869 25.6972 37.0869 25.9328V26.0113C37.0869 26.2468 36.8531 26.4299 36.5725 26.4299H32.348C32.0674 26.4299 31.8492 26.6262 31.8492 26.8617Z" fill="#CD181E"/>
<path fill-rule="evenodd" clip-rule="evenodd" d="M48.0144 29.5309C47.7338 29.6879 47.7338 30.0412 48.0144 30.2243C48.6067 30.5994 48.9029 31.1097 48.9029 31.7552V33.587C48.9029 33.8356 48.6691 34.0187 48.3885 34.0187H48.0767C47.7961 34.0187 47.5779 33.8356 47.5779 33.587V31.7944C47.5779 30.8524 46.3724 30.3813 43.9614 30.3813H39.2225C38.9419 30.3813 38.7081 30.5645 38.7081 30.8V33.587C38.7081 33.8356 38.4899 34.0187 38.2093 34.0187H37.9131C37.6169 34.0187 37.3987 33.8356 37.3987 33.587V25.9328C37.3987 25.6972 37.6169 25.501 37.9131 25.501H44.1484C47.4532 25.501 49.1055 26.2773 49.1055 27.8299C49.1055 28.5539 48.7418 29.1209 48.0144 29.5309ZM44.1952 26.4299H39.2225C38.9419 26.4299 38.7081 26.6262 38.7081 26.8617V28.9944C38.7081 29.2299 38.9419 29.4262 39.2225 29.4262H43.8679C44.8863 29.4262 45.7437 29.3259 46.4399 29.1253C47.3337 28.8461 47.7805 28.4275 47.7805 27.8692C47.7805 26.9097 46.5854 26.4299 44.1952 26.4299Z" fill="#CD181E"/>
<path d="M60.3603 33.5477C59.4146 33.9228 58.0844 34.1103 56.3697 34.1103C52.3687 34.1103 50.3682 32.9938 50.3682 30.7608V25.9328C50.3682 25.6972 50.602 25.501 50.8826 25.501H51.1788C51.4593 25.501 51.6932 25.6972 51.6932 25.9328V30.7608C51.6932 32.3745 53.252 33.1813 56.3697 33.1813C59.4874 33.1813 61.0462 32.3876 61.0462 30.8V25.9328C61.0462 25.6972 61.2644 25.501 61.545 25.501H61.8568C62.1374 25.501 62.3556 25.6972 62.3556 25.9328V30.787C62.3556 32.0866 61.6905 33.0069 60.3603 33.5477Z" fill="#CD181E"/>
<path d="M77.5699 33.587V28.5888C77.5699 28.1701 76.9463 28 76.6502 28.3402L71.9737 33.8356C71.8801 33.9533 71.7242 34.0187 71.5528 34.0187H71.1319C70.976 34.0187 70.8201 33.9533 70.7266 33.8356L66.0189 28.3271C65.7383 28 65.0992 28.1701 65.0992 28.5757V33.587C65.0992 33.8356 64.8653 34.0187 64.5848 34.0187H64.2886C64.008 34.0187 63.7742 33.8356 63.7742 33.587V25.9328C63.7742 25.6972 64.008 25.501 64.2886 25.501H64.8965C65.0524 25.501 65.2083 25.5664 65.3018 25.6841L70.9292 32.2785C71.1319 32.5141 71.5528 32.5141 71.7554 32.2785L77.3984 25.6841C77.4919 25.5664 77.6478 25.501 77.8037 25.501H78.3805C78.6611 25.501 78.8949 25.6972 78.8949 25.9328V33.587C78.8949 33.8356 78.6611 34.0187 78.3805 34.0187H78.0843C77.8037 34.0187 77.5699 33.8356 77.5699 33.587Z" fill="#CD181E"/>
<path d="M80.3291 33.587V25.9328C80.3291 25.6972 80.5629 25.501 80.8435 25.501H81.1397C81.4203 25.501 81.6541 25.6972 81.6541 25.9328V33.587C81.6541 33.8356 81.4203 34.0187 81.1397 34.0187H80.8435C80.5629 34.0187 80.3291 33.8356 80.3291 33.587Z" fill="#CD181E"/>
<path d="M93.6884 33.9271L88.7936 30.5253C88.6066 30.3944 88.3415 30.3944 88.1545 30.5253L83.213 33.9271C83.1194 33.9926 83.0103 34.0187 82.8856 34.0187H82.605C82.1218 34.0187 81.9035 33.5215 82.2777 33.2599L87.0165 29.9757C87.266 29.8056 87.266 29.4916 87.0165 29.3215L82.5739 26.2599C82.1997 26.0113 82.418 25.501 82.8856 25.501H83.2286C83.3533 25.501 83.4624 25.5402 83.5559 25.6056L88.1545 28.7851C88.3415 28.9159 88.6066 28.9159 88.7936 28.7851L93.4545 25.6056C93.5325 25.5402 93.6572 25.501 93.7663 25.501H94.0781C94.5613 25.501 94.7796 26.0113 94.4054 26.2599L89.9472 29.3215C89.6977 29.4916 89.6977 29.8056 89.9472 29.9757L94.6237 33.2599C94.9822 33.5215 94.7796 34.0187 94.2963 34.0187H94.0157C93.891 34.0187 93.7819 33.9795 93.6884 33.9271Z" fill="#CD181E"/>
<path d="M94.7016 9.3027C94.686 9.18495 94.6236 9.0541 94.4833 8.93635C86.5956 2.10644 73.8287 -0.0393511 62.8857 0.353172C50.9918 0.784948 39.5187 4.48775 30.0877 10.5457C27.5624 12.1681 25.193 13.9214 22.9795 15.8317C20.953 17.598 19.0824 19.4691 18.1471 21.8111C18.1055 21.8198 18.0691 21.8329 18.0379 21.8504C12.8938 24.3233 8.65373 27.9345 5.86342 32.3307C5.39576 33.0765 6.73637 33.7438 7.20402 32.998C9.86963 28.7849 13.8914 25.3438 18.8174 22.9756C18.8953 22.9363 18.9577 22.8971 19.0044 22.8448C19.2382 22.7924 19.4409 22.6616 19.5344 22.413C19.6024 22.2288 19.6771 22.0479 19.7579 21.8699C20.659 19.8856 22.3267 18.2736 24.0862 16.7606C25.9257 15.1644 27.8898 13.6728 29.9475 12.2859C34.3122 9.35504 39.1758 6.90831 44.3511 5.11579C54.8733 1.4784 66.736 0.562515 77.8038 2.91765C83.2441 4.08214 88.5286 5.99242 92.6283 9.25037C84.6315 11.2261 79.5808 17.5326 72.2075 20.5681C61.171 25.1083 49.2615 18.9195 38.0534 18.2653C33.299 17.9906 27.0948 18.9457 22.5586 21.0522C28.1548 16.2111 37.2428 12.2859 44.8811 10.3102C49.9941 8.98868 55.263 8.11205 60.6254 8.00738C66.0813 7.88962 71.5217 8.46532 76.8841 9.32887C77.8661 9.48588 78.287 8.21672 77.2893 8.05971C71.8022 7.18308 66.2216 6.58121 60.6254 6.69897C55.1227 6.80364 49.7135 7.69336 44.4758 9.05411C35.4813 11.37 26.9545 14.9943 20.8127 21.1307C20.4916 21.4487 20.0859 21.6735 19.7579 21.8699C19.2896 22.1503 18.9797 22.3731 19.3006 22.727C19.7994 23.2896 20.8438 22.6485 21.5453 22.3606C26.6583 20.2803 32.3792 19.2466 38.0534 19.5737C43.9614 19.9139 49.5732 21.6672 55.3253 22.6747C60.5474 23.6036 66.1592 23.9962 71.2411 22.3345C75.0914 21.0784 78.3338 18.8672 81.4826 16.6691C85.333 13.9737 89.2456 11.1737 94.2651 10.2448C94.8419 10.1401 94.9354 9.64289 94.7016 9.3027Z" fill="white"/>
<path d="M24.0862 16.7606C22.3267 18.2736 20.659 19.8856 19.7579 21.8699C20.0859 21.6735 20.4916 21.4487 20.8127 21.1307C26.9545 14.9943 35.4813 11.37 44.4758 9.05411C49.7135 7.69336 55.1227 6.80364 60.6254 6.69897C66.2216 6.58121 71.8022 7.18308 77.2893 8.05971C78.287 8.21672 77.8661 9.48588 76.8841 9.32887C71.5217 8.46532 66.0813 7.88962 60.6254 8.00738C55.263 8.11205 49.9941 8.98868 44.8811 10.3102C37.2428 12.2859 28.1548 16.2111 22.5586 21.0522C27.0948 18.9457 33.299 17.9906 38.0534 18.2653C49.2615 18.9195 61.171 25.1083 72.2075 20.5681C79.5808 17.5326 84.6315 11.2261 92.6283 9.25037C88.5286 5.99242 83.2441 4.08214 77.8038 2.91765C66.736 0.562515 54.8733 1.4784 44.3511 5.11579C39.1758 6.90831 34.3122 9.35504 29.9475 12.2859C27.8898 13.6728 25.9257 15.1644 24.0862 16.7606Z" fill="#D1242A"/>
<path d="M94.7951 34.6991C94.1404 34.6991 27.1104 34.673 26.518 34.6599H26.5024L8.74728 34.9216H8.70052C8.51346 34.9477 8.10816 34.9739 7.59375 34.987C3.58753 35.0393 1.32722 33.7309 1.26487 31.2842C1.23369 30.0412 2.18458 27.4636 6.87668 22.1645C9.24611 19.4954 11.6779 17.1664 12.3638 16.5122L12.4729 16.3944L12.2703 6.11034L11.1791 6.12342C10.0255 6.14959 9.05905 5.24679 9.02788 4.12155C9.02788 3.57202 9.23053 3.04865 9.63582 2.65613C10.0255 2.27669 10.5399 2.06735 11.1011 2.05426L22.7768 1.88417C22.7872 1.88417 22.7976 1.88417 22.808 1.88417C23.9615 1.88417 24.8968 2.78697 24.928 3.89912C24.928 4.44865 24.7254 4.95893 24.3201 5.35146C23.9304 5.7309 23.4159 5.95333 22.8548 5.95333L22.0909 5.96641L22.2936 16.8393H23.2289L23.0418 6.73837C23.8057 6.68604 24.4915 6.3851 25.0215 5.87482C25.5827 5.32529 25.8789 4.61875 25.8633 3.88604C25.8321 2.34211 24.4604 1.09912 22.808 1.09912C22.7872 1.09912 22.7716 1.09912 22.7612 1.09912L11.0855 1.26922C10.2594 1.2823 9.49553 1.59632 8.93435 2.14585C8.37316 2.6823 8.07699 3.38884 8.09258 4.13464C8.12375 5.67856 9.49552 6.90847 11.1479 6.90847C11.1687 6.90847 11.1843 6.90847 11.1947 6.90847H11.3505L11.5376 16.1066C10.7114 16.8916 8.40434 19.1421 6.12844 21.6935C2.23135 26.0898 0.267211 29.3216 0.329564 31.2973C0.407506 34.1103 3.02635 35.772 7.35992 35.772C7.44306 35.772 7.5262 35.772 7.60933 35.772C8.15493 35.7589 8.56023 35.7197 8.77846 35.7066L26.4869 35.4449C28.4978 35.458 94.2963 35.4842 94.8107 35.4842L94.7951 34.6991Z" fill="white"/>
</g>
<defs>
<clipPath id="clip0_1330_17">
<rect width="95" height="36" fill="white"/>
</clipPath>
</defs>
</svg>
