<svg width="50" height="50" viewBox="0 0 50 50" fill="none" xmlns="http://www.w3.org/2000/svg">
<path d="M38.1284 40.9012H12.9202H12.882C12.7294 40.9266 12.3986 40.9521 11.9788 40.9648C8.7094 41.0156 6.86479 39.7441 6.8139 37.3663C6.78846 36.1583 7.56447 33.6534 11.3936 28.5037C13.3273 25.9097 15.3118 23.6464 15.8716 23.0106L15.9606 22.8962L15.7952 12.9019L14.9047 12.9146C13.9634 12.94 13.1746 12.0626 13.1492 10.9691C13.1492 10.4351 13.3146 9.92646 13.6453 9.54499C13.9634 9.17625 14.3832 8.9728 14.8411 8.96009L24.3695 8.79478H24.395C25.3363 8.79478 26.0996 9.67215 26.1251 10.753C26.1251 11.287 25.9597 11.7829 25.6289 12.1644C25.3109 12.5331 24.8911 12.7493 24.4331 12.7493L23.8098 12.762L23.9751 23.3285H24.7384L24.5858 13.5122C25.2091 13.4613 25.7689 13.1689 26.2014 12.673C26.6594 12.1389 26.9011 11.4523 26.8884 10.7402C26.8629 9.23983 25.7434 8.03186 24.395 8.03186H24.3568L14.8284 8.19716C14.1542 8.20988 13.5308 8.51505 13.0729 9.04909C12.6149 9.57042 12.3732 10.2571 12.3859 10.9818C12.4113 12.4823 13.5308 13.6775 14.8793 13.6775H14.9175H15.0447L15.1973 22.6164C14.5231 23.3794 12.6403 25.5664 10.783 28.0459C7.60263 32.3183 5.99973 35.459 6.05061 37.379C6.11422 40.1128 8.25143 41.7277 11.788 41.7277H11.9915C12.4368 41.715 12.7675 41.6768 12.9456 41.6641H38.1284V40.9012Z" fill="black"/>
<path d="M45.5859 10.8086C45.5452 10.7495 45.4813 10.6943 45.3888 10.6639C40.1253 8.84431 34.1944 10.6352 29.7591 13.3566C24.9399 16.3172 21.2461 20.9201 19.0855 26.3061C18.507 27.7484 18.0314 29.2246 17.6661 30.7484C17.3369 32.1527 17.1028 33.5769 17.3944 35.0367C17.3797 35.0509 17.3684 35.0662 17.3605 35.0826C15.9404 37.5784 15.2269 40.4717 15.3441 43.4495C15.3664 43.9534 16.1176 44.0003 16.0953 43.4964C15.9794 40.6447 16.6516 37.8919 18.0114 35.5018C18.0324 35.463 18.7824 34.716 18.8397 34.6301C18.9217 34.5486 18.1794 35.1917 18.1461 35.0381C17.8395 33.6589 18.078 32.3047 18.3961 30.9881C18.6971 29.7171 19.0803 28.4732 19.5327 27.2634C20.4957 24.7031 21.8068 22.2856 23.4375 20.1444C26.7551 15.7946 31.4206 12.5838 36.706 11.2944C39.306 10.6642 42.0579 10.4663 44.7088 11.2568C41.9583 14.1433 40.2596 18.8463 38.0762 22.1531C34.8071 27.1009 31.1449 27.0723 26.2953 29.2981C24.239 30.2438 20.1048 31.445 18.831 33.6064C19.751 29.7479 22.5656 25.5882 25.167 22.784C26.9087 20.9074 28.8444 19.2316 31.0433 17.9446C33.2772 16.6292 35.7062 15.686 38.1863 14.9138C38.6402 14.7717 38.4465 14.0004 37.9861 14.146C35.4503 14.94 32.9554 15.9014 30.6631 17.249C28.4059 18.5682 26.4157 20.2833 24.6336 22.2093C21.5672 25.5058 18.9405 29.3611 18.1701 34.0335C18.0704 34.6229 17.5359 34.9248 17.9376 35.1195C18.3084 35.3041 18.4199 34.995 18.8397 34.6301C20.3609 32.3502 24.1635 31.1309 25.0983 30.6331C26.0331 30.1353 30.7602 28.4714 33.4669 27.1903C36.1736 25.9092 37.8524 24.2628 38.7458 22.7497C39.6392 21.2366 41.185 18.2727 41.185 18.2727C41.185 18.2727 43.8614 13.056 45.6782 11.4096C45.8875 11.2215 45.782 10.9357 45.5859 10.8086Z" fill="black"/>
<path d="M18.3958 30.988C18.1261 32.1044 17.9136 33.2477 18.042 34.4102C18.0841 34.3255 18.1226 34.2325 18.1491 34.1302L18.1698 34.0335C18.9402 29.3611 21.5669 25.5058 24.6333 22.2093C26.4154 20.2833 28.4056 18.5682 30.6628 17.249C32.9551 15.9014 35.4499 14.9399 37.9858 14.146C38.4461 14.0004 38.6399 14.7717 38.186 14.9137C35.7058 15.686 33.2769 16.6292 31.0429 17.9446C28.8441 19.2316 26.9084 20.9074 25.1667 22.784C22.5653 25.5882 19.7507 29.7478 18.8307 33.6064C20.1045 31.4449 24.2386 30.2437 26.295 29.2981C31.1446 27.0722 34.8068 27.1009 38.0759 22.1531C40.2592 18.8463 41.958 14.1433 44.7085 11.2568C42.0576 10.4662 39.3057 10.6642 36.7057 11.2943C31.4203 12.5837 26.7547 15.7946 23.4372 20.1443C21.8065 22.2856 20.4954 24.7031 19.5324 27.2634C19.0799 28.4731 18.6968 29.7171 18.3958 30.988Z" fill="#CD181E"/>
</svg>
