<svg width="21" height="22" viewBox="0 0 21 22" fill="none" xmlns="http://www.w3.org/2000/svg">
<path d="M4.39521 2.82743L5.275 3.62693M6 4.5L7.68366 6.18423M7.68366 6.18423C7.02017 6.8858 5.50589 7.91849 5.275 8.8808C6.25866 11.8504 10.2077 15.3529 12.4 16.3047C13.1673 16.0763 15.1404 13.2209 16.0173 13.2209C17.7711 14.1347 18.8673 15.7337 19.8538 16.99C20.2061 17.4386 19.8871 18.1057 19.2666 18.7676M7.68366 6.18423C7.77616 6.08643 7.85212 5.99506 7.90576 5.91122C9.22114 4.88329 5.77922 1 3.84999 1C2.86346 1.95179 1 4.44752 1 6.82494C0.999996 11.7362 10.5337 20.2476 15.1404 20.9875C16.0547 21.1344 18.1494 19.9594 19.2666 18.7676M15.7952 15.391L16.6548 16.3047M17.549 17.1042L19.2666 18.7676" stroke="black" stroke-width="0.7" stroke-linecap="round"/>
</svg>
