<svg width="269" height="257" viewBox="0 0 269 257" fill="none" xmlns="http://www.w3.org/2000/svg">
<g clip-path="url(#clip0_9_2)">
<path d="M0 0H187C225.66 0 257 31.3401 257 70V257H70C31.3401 257 0 225.66 0 187V0Z" fill="#FFD375"/>
<path d="M195 213.489L64.3111 215.021H64.0816C63.1637 215.174 61.175 215.327 58.6509 215.404C38.9932 215.71 27.9024 208.05 27.5964 193.725C27.4434 186.448 32.1092 171.357 55.1324 140.332C66.7587 124.705 78.691 111.069 82.0565 107.239L82.5919 106.55L81.5976 46.3393L76.2433 46.4158C70.5832 46.569 65.8409 41.2834 65.6879 34.6955C65.6879 31.4781 66.6822 28.414 68.6709 26.1158C70.5832 23.8943 73.1073 22.6687 75.8609 22.5921L133.151 21.5962H133.304C138.964 21.5962 143.554 26.8819 143.707 33.3932C143.707 36.6106 142.712 39.5981 140.723 41.8962C138.811 44.1177 136.287 45.42 133.534 45.42L129.786 45.4966L130.78 109.154H135.369L134.451 50.0162C138.199 49.7098 141.565 47.9479 144.165 44.9604C146.919 41.743 148.372 37.6064 148.296 33.3166C148.143 24.2774 141.412 17 133.304 17H133.075L75.7844 17.9959C71.7305 18.0725 67.9825 19.9109 65.2289 23.1283C62.4753 26.2691 61.0221 30.4057 61.0985 34.7721C61.2515 43.8113 67.9825 51.0121 76.0903 51.0121H76.3198H77.0847L78.0026 104.865C73.9487 109.461 62.6283 122.637 51.4609 137.574C32.3387 163.313 22.7011 182.234 23.0071 193.802C23.3895 210.271 36.2396 220 57.5036 220H58.7274C61.4045 219.923 63.3932 219.694 64.464 219.617L195 218.161V213.489Z" fill="black"/>
<path d="M99.1607 190.023C99.1607 190.023 108.585 171.198 119.534 164.02C130.504 156.875 193.838 136.741 201.827 123.042C215.629 99.2786 204.971 118.301 210.556 102.511C216.14 86.7211 213.324 91.3882 219.257 81.293C225.169 71.1648 230.052 59.9712 229.58 58.9644C228.636 56.9508 179.057 56.6903 162.168 73.4511C146.993 88.524 148.266 80.3558 129.387 100.678C110.508 121 101.499 143.971 97.8606 159.143C94.1675 174.304 93.2672 196.378 93.2672 196.378L99.1607 190.023Z" fill="#CD181E"/>
<path d="M233.175 56.7023C232.948 56.428 232.601 56.1854 232.111 56.0835C204.222 49.8287 173.759 62.0911 151.325 78.2096C126.95 95.7416 108.852 120.911 98.9405 149.175C96.2871 156.743 94.178 164.425 92.6564 172.287C91.2923 179.527 90.4293 186.815 92.3151 193.994C92.2418 194.073 92.1866 194.156 92.1496 194.243C85.3737 207.571 82.3802 222.508 83.7377 237.413C83.98 239.934 87.9069 239.757 87.6646 237.236C86.3458 222.964 89.1593 208.755 95.6473 195.993C95.7471 195.787 95.8139 195.602 95.8263 195.406C96.2333 194.951 96.4451 194.342 96.2329 193.588C94.2894 186.823 95.1932 179.884 96.5213 173.09C97.7711 166.536 99.4565 160.072 101.512 153.741C105.889 140.341 112.116 127.468 120.079 115.807C136.279 92.1167 159.791 73.4113 187.015 64.0246C200.408 59.4277 214.701 56.9204 228.715 59.4378C215.104 75.4604 214.841 98.2914 204.29 116.115C188.492 142.785 153.177 143.703 128.459 157.557C117.979 163.441 106.467 174.421 100.369 185.987C104.197 166.083 116.899 143.653 129.754 128.126C138.361 117.735 148.03 108.247 159.168 100.568C170.481 92.7281 182.904 86.6517 195.637 81.4064C197.967 80.4429 196.764 76.6718 194.401 77.6568C181.384 83.0417 168.622 89.2463 157.012 97.2807C145.579 105.153 135.635 114.869 126.83 125.531C111.675 143.788 99.6609 164.686 96.8164 188.598C96.4443 191.616 94.1147 193.942 96.257 194.7C98.236 195.424 99.3827 192.369 100.388 190.676C107.745 178.378 118.108 167.869 130.615 160.845C143.636 153.53 158.361 150.176 172.153 144.753C184.698 139.866 197.181 133.092 205.162 121.89C211.213 113.409 214.409 103.369 217.429 93.4917C221.11 81.3946 224.749 68.9484 233.806 59.6731C234.85 58.6125 234.228 57.2338 233.175 56.7023Z" fill="#050505"/>
</g>
<defs>
<clipPath id="clip0_9_2">
<rect width="269" height="257" fill="white"/>
</clipPath>
</defs>
</svg>
