<svg width="71" height="71" viewBox="0 0 71 71" fill="none" xmlns="http://www.w3.org/2000/svg">
<path d="M49.7166 56.2392H25.3683H25.3315C25.184 56.2638 24.8645 56.2885 24.4591 56.3008C21.3012 56.3501 19.5195 55.118 19.4703 52.814C19.4457 51.6435 20.1953 49.2163 23.8938 44.2264C25.7615 41.713 27.6784 39.5199 28.219 38.9039L28.305 38.793L28.1453 29.1089L27.2852 29.1212C26.3759 29.1458 25.6141 28.2957 25.5895 27.2361C25.5895 26.7186 25.7492 26.2258 26.0687 25.8562C26.3759 25.4989 26.7814 25.3018 27.2237 25.2894L36.4271 25.1293H36.4517C37.3609 25.1293 38.0982 25.9794 38.1228 27.0267C38.1228 27.5441 37.963 28.0246 37.6436 28.3943C37.3364 28.7516 36.9309 28.961 36.4885 28.961L35.8864 28.9733L36.0462 39.2119H36.7834L36.636 29.7003C37.2381 29.651 37.7787 29.3676 38.1965 28.8871C38.6388 28.3696 38.8723 27.7043 38.86 27.0143C38.8354 25.5605 37.7541 24.39 36.4517 24.39H36.4148L27.2115 24.5502C26.5602 24.5625 25.9581 24.8582 25.5158 25.3757C25.0734 25.8808 24.84 26.5461 24.8523 27.2484C24.8768 28.7023 25.9581 29.8604 27.2606 29.8604H27.2975H27.4203L27.5678 38.5219C26.9166 39.2612 25.098 41.3803 23.304 43.7829C20.2321 47.9227 18.6839 50.9659 18.7331 52.8263C18.7945 55.4753 20.8588 57.04 24.2747 57.04H24.4713C24.9014 57.0277 25.2209 56.9907 25.3929 56.9784H49.7166V56.2392Z" fill="black"/>
<path d="M56.9198 27.0805C56.8805 27.0233 56.8188 26.9698 56.7294 26.9403C51.6455 25.1772 45.9168 26.9125 41.6329 29.5494C36.9781 32.4182 33.4102 36.8782 31.3233 42.097C30.7646 43.4946 30.3052 44.9249 29.9524 46.4014C29.6344 47.7622 29.4083 49.1421 29.69 50.5566C29.6757 50.5704 29.6648 50.5852 29.6572 50.6011C28.2855 53.0195 27.5963 55.823 27.7096 58.7084C27.7311 59.1966 28.4567 59.242 28.4352 58.7538C28.3232 55.9906 28.9725 53.3232 30.2859 51.0073C30.3062 50.9698 31.0306 50.246 31.0859 50.1627C31.1651 50.0837 30.4482 50.7068 30.416 50.558C30.1198 49.2217 30.3502 47.9095 30.6575 46.6337C30.9482 45.4022 31.3183 44.1968 31.7553 43.0246C32.6855 40.5438 33.9518 38.2014 35.5269 36.1265C38.7313 31.9118 43.2377 28.8006 48.3428 27.5512C50.8541 26.9406 53.5121 26.7488 56.0726 27.5148C53.416 30.3118 51.7751 34.8688 49.6663 38.0729C46.5087 42.8672 42.9714 42.8394 38.2872 44.9962C36.301 45.9125 32.3079 47.0764 31.0776 49.1708C31.9662 45.432 34.6847 41.4014 37.1974 38.6843C38.8797 36.8659 40.7493 35.2421 42.8732 33.9951C45.031 32.7205 47.3771 31.8066 49.7726 31.0583C50.211 30.9207 50.0239 30.1733 49.5792 30.3144C47.1299 31.0837 44.7201 32.0153 42.506 33.3211C40.3258 34.5993 38.4035 36.2611 36.6822 38.1274C33.7204 41.3216 31.1833 45.0572 30.4392 49.5846C30.3428 50.1557 29.8266 50.4483 30.2146 50.6369C30.5728 50.8157 30.6804 50.5163 31.0859 50.1627C32.5552 47.9535 36.2282 46.772 37.1311 46.2897C38.034 45.8073 42.5998 44.1951 45.2141 42.9538C47.8285 41.7124 49.4501 40.1171 50.313 38.651C51.176 37.1849 52.669 34.313 52.669 34.313C52.669 34.313 55.2541 29.2582 57.0089 27.6629C57.2111 27.4806 57.1092 27.2037 56.9198 27.0805Z" fill="black"/>
<path d="M30.6572 46.6337C30.3967 47.7154 30.1914 48.8232 30.3155 49.9497C30.3561 49.8676 30.3933 49.7775 30.4189 49.6784L30.4389 49.5847C31.183 45.0572 33.7201 41.3216 36.6819 38.1275C38.4032 36.2612 40.3255 34.5994 42.5058 33.3211C44.7198 32.0153 47.1296 31.0837 49.5789 30.3144C50.0236 30.1733 50.2108 30.9207 49.7724 31.0583C47.3768 31.8066 45.0307 32.7205 42.8729 33.9951C40.7491 35.2421 38.8794 36.866 37.1971 38.6843C34.6844 41.4015 31.9659 45.432 31.0773 49.1708C32.3076 47.0764 36.3007 45.9125 38.287 44.9962C42.9711 42.8395 46.5084 42.8672 49.666 38.0729C51.7749 34.8688 53.4157 30.3118 56.0723 27.5149C53.5118 26.7489 50.8538 26.9406 48.3425 27.5512C43.2374 28.8006 38.731 31.9118 35.5266 36.1266C33.9515 38.2014 32.6852 40.5438 31.755 43.0246C31.318 44.1969 30.9479 45.4022 30.6572 46.6337Z" fill="#CD181E"/>
<path d="M11.0742 35.7129L10.9746 35.4316C11.334 35.3613 11.5703 35.1523 11.6836 34.8047C11.7109 34.6797 11.7246 34.6172 11.7246 34.6172H12.0176C12.0176 34.9687 11.8691 35.2617 11.5723 35.4961C11.3926 35.6367 11.2266 35.7089 11.0742 35.7129ZM8.99414 35.666C8.57617 35.666 8.26172 35.4824 8.05078 35.1152C7.94922 34.9394 7.89844 34.7734 7.89844 34.6172H8.19141C8.19531 34.7578 8.25977 34.9062 8.38477 35.0625C8.55273 35.2578 8.76367 35.3574 9.01758 35.3613C9.31055 35.3613 9.51953 35.1504 9.64453 34.7285C9.66016 34.6855 9.70898 34.4648 9.79102 34.0664C9.80664 33.9882 9.82227 33.9257 9.83789 33.8789C9.94727 33.5195 10.1328 33.291 10.3945 33.1933C10.5156 33.1504 10.6523 33.1289 10.8047 33.1289C11.1367 33.1289 11.4258 33.2597 11.6719 33.5214C11.9023 33.7636 12.0176 34.039 12.0176 34.3476H11.7246C11.7246 34.1757 11.6465 33.9941 11.4902 33.8027C11.291 33.5644 11.0547 33.4433 10.7812 33.4394C10.4492 33.4394 10.2207 33.664 10.0957 34.1132C10.0879 34.1484 10.0469 34.3554 9.97266 34.7343C9.95312 34.8281 9.93555 34.8984 9.91992 34.9453C9.79492 35.2617 9.64062 35.4687 9.45703 35.5664C9.32812 35.6328 9.17383 35.666 8.99414 35.666ZM8.19141 34.3476H7.89844C7.89844 33.9961 8.05859 33.705 8.37891 33.4746C8.51953 33.373 8.64648 33.3125 8.75977 33.2929L8.85352 33.5859C8.73633 33.6172 8.63281 33.664 8.54297 33.7265C8.45312 33.789 8.38672 33.8554 8.34375 33.9257C8.30078 33.9961 8.26758 34.0644 8.24414 34.1308C8.2168 34.1933 8.20117 34.2461 8.19727 34.289L8.19141 34.3476Z" fill="black"/>
<path d="M8.86373 29.4944L8.57617 29.4131L9.20078 26.9541L9.48834 27.0354L9.21426 28.1144L12.8736 29.1487L12.7972 29.4497L9.13781 28.4154L8.86373 29.4944Z" fill="black"/>
<path d="M14.3373 24.5099L10.8343 22.3765L10.9834 22.1041L14.4864 24.2375L14.3373 24.5099ZM13.0445 23.0441L12.7943 22.8917L13.1909 22.167C13.3672 21.8449 13.3423 21.5693 13.1163 21.3402C13.0393 21.2614 12.9408 21.1854 12.8207 21.1122C12.4304 20.8745 12.1173 20.8735 11.8816 21.1091C11.8095 21.184 11.7415 21.2797 11.6778 21.3962L11.343 22.0078L11.1128 21.8676L11.5038 21.1532C11.8654 20.5738 12.354 20.4694 12.9698 20.8398C13.3883 21.0993 13.6021 21.3871 13.6114 21.7035C13.8476 21.532 14.1223 21.5258 14.4357 21.6847L15.5695 22.2587L15.4232 22.5259L14.4902 22.0605C14.1783 21.9071 13.9454 21.8612 13.7916 21.9229C13.669 21.9761 13.5616 22.0912 13.4693 22.2679L13.0445 23.0441Z" fill="black"/>
<path d="M17.2388 19.2916L15.195 17.1357L15.4087 16.9103L17.4524 19.0663C17.6674 19.2931 17.9456 19.354 18.2869 19.2491C18.4454 19.2009 18.561 19.1386 18.6335 19.062L18.8432 19.2831C18.69 19.4447 18.4804 19.5525 18.2143 19.6063C17.8327 19.6744 17.5075 19.5695 17.2388 19.2916ZM19.0326 19.0833L18.823 18.8622C18.9359 18.7431 19.0084 18.573 19.0407 18.3519C19.081 18.0599 19.0098 17.8147 18.827 17.6162L16.7833 15.4603L16.9969 15.2349L19.0407 17.3908C19.3417 17.7084 19.433 18.0911 19.3148 18.539C19.253 18.7686 19.1589 18.95 19.0326 19.0833Z" fill="black"/>
<path d="M22.9002 15.8803L21.3952 13.1304L21.4403 13.103L21.9643 13.524L23.1655 15.7187L22.9002 15.8803ZM21.0183 12.4417L20.9311 12.2823L21.1613 12.1421L24.1759 14.5414L23.9039 11.582L23.954 11.5515L24.2634 12.1169L24.5216 14.8928L24.2914 15.033L21.0183 12.4417ZM25.6977 14.1766L23.7285 10.5786L23.9937 10.4171L25.9629 14.015L25.6977 14.1766Z" fill="black"/>
<path d="M28.7904 12.5147L27.7806 8.53933L28.0794 8.45486L29.0892 12.4302L28.7904 12.5147Z" fill="black"/>
<path d="M31.9597 12L33.0144 9.87891L32.03 7.89844H32.3347L33.1667 9.55078L33.9988 7.89844H34.3035L33.3191 9.87891L34.3738 12H34.0632L33.1667 10.2188L32.2703 12H31.9597Z" fill="black"/>
</svg>
