<svg width="251" height="174" viewBox="0 0 251 174" fill="none" xmlns="http://www.w3.org/2000/svg">
<path d="M94.999 141.662C93.068 142.339 90.7489 142.678 88.0416 142.678C84.9761 142.678 82.4579 142.329 80.4872 141.633C77.3817 140.558 75.829 138.696 75.829 136.049V135.929C75.829 135.392 76.2769 134.974 76.8144 134.974H77.3817C77.9192 134.974 78.3671 135.392 78.3671 135.929C78.3671 139.015 81.6119 140.558 88.1014 140.558C90.1915 140.558 91.9831 140.349 93.4761 139.931C95.5265 139.353 96.5517 138.458 96.5517 137.243C96.5517 136.427 96.2133 135.81 95.5364 135.392C94.9791 135.054 94.0335 134.745 92.6998 134.466C91.9632 134.327 90.1219 134.038 87.1757 133.601C83.8314 133.103 81.582 132.635 80.4274 132.197C77.9192 131.281 76.6651 129.888 76.6651 128.017C76.6651 124.573 80.2184 122.851 87.325 122.851C90.9281 122.851 93.6453 123.339 95.4767 124.314C97.1688 125.25 98.174 126.643 98.4925 128.495C98.5821 129.092 98.1342 129.659 97.537 129.659H96.91C96.4322 129.659 96.044 129.301 95.9545 128.853C95.8151 128.097 95.5762 127.479 95.2378 127.002C94.7601 126.385 94.0335 125.927 93.0581 125.628C91.7841 125.19 89.873 124.971 87.325 124.971C81.9105 124.971 79.2032 125.986 79.2032 128.017C79.2032 128.952 79.89 129.669 81.2635 130.167C82.2787 130.545 84.0504 130.903 86.5785 131.242C91.2764 131.839 94.4217 132.476 96.0142 133.153C98.0845 134.009 99.1196 135.402 99.1196 137.333C99.1196 139.284 97.746 140.727 94.999 141.662Z" fill="#CD181E"/>
<path d="M111.959 126.136V141.483C111.959 142.051 111.511 142.469 110.974 142.469H110.407C109.869 142.469 109.421 142.051 109.421 141.483V126.136C109.421 125.598 109.003 125.15 108.466 125.15H100.374C99.8362 125.15 99.3883 124.732 99.3883 124.195V124.016C99.3883 123.478 99.8362 123.031 100.374 123.031H121.007C121.544 123.031 121.992 123.478 121.992 124.016V124.195C121.992 124.732 121.544 125.15 121.007 125.15H112.915C112.377 125.15 111.959 125.598 111.959 126.136Z" fill="#CD181E"/>
<path fill-rule="evenodd" clip-rule="evenodd" d="M142.924 132.227C142.386 132.585 142.386 133.392 142.924 133.81C144.058 134.666 144.626 135.83 144.626 137.303V141.483C144.626 142.051 144.178 142.469 143.64 142.469H143.043C142.506 142.469 142.088 142.051 142.088 141.483V137.393C142.088 135.243 139.779 134.168 135.16 134.168H126.083C125.545 134.168 125.098 134.586 125.098 135.123V141.483C125.098 142.051 124.679 142.469 124.142 142.469H123.575C123.007 142.469 122.589 142.051 122.589 141.483V124.016C122.589 123.478 123.007 123.031 123.575 123.031H135.519C141.849 123.031 145.014 124.802 145.014 128.345C145.014 129.998 144.317 131.291 142.924 132.227ZM135.608 125.15H126.083C125.545 125.15 125.098 125.598 125.098 126.136V131.003C125.098 131.54 125.545 131.988 126.083 131.988H134.981C136.932 131.988 138.574 131.759 139.908 131.301C141.62 130.664 142.476 129.709 142.476 128.435C142.476 126.245 140.187 125.15 135.608 125.15Z" fill="#CD181E"/>
<path d="M166.573 141.394C164.761 142.25 162.213 142.678 158.929 142.678C151.265 142.678 147.433 140.13 147.433 135.034V124.016C147.433 123.478 147.88 123.031 148.418 123.031H148.985C149.523 123.031 149.971 123.478 149.971 124.016V135.034C149.971 138.716 152.957 140.558 158.929 140.558C164.9 140.558 167.886 138.746 167.886 135.123V124.016C167.886 123.478 168.304 123.031 168.842 123.031H169.439C169.977 123.031 170.395 123.478 170.395 124.016V135.093C170.395 138.059 169.121 140.16 166.573 141.394Z" fill="#CD181E"/>
<path d="M199.538 141.483V130.077C199.538 129.122 198.343 128.734 197.776 129.51L188.818 142.051C188.639 142.319 188.34 142.469 188.012 142.469H187.206C186.907 142.469 186.608 142.319 186.429 142.051L177.412 129.48C176.874 128.734 175.65 129.122 175.65 130.047V141.483C175.65 142.051 175.202 142.469 174.665 142.469H174.097C173.56 142.469 173.112 142.051 173.112 141.483V124.016C173.112 123.478 173.56 123.031 174.097 123.031H175.262C175.56 123.031 175.859 123.18 176.038 123.449L186.817 138.497C187.206 139.035 188.012 139.035 188.4 138.497L199.209 123.449C199.388 123.18 199.687 123.031 199.986 123.031H201.09C201.628 123.031 202.076 123.478 202.076 124.016V141.483C202.076 142.051 201.628 142.469 201.09 142.469H200.523C199.986 142.469 199.538 142.051 199.538 141.483Z" fill="#CD181E"/>
<path d="M204.823 141.483V124.016C204.823 123.478 205.271 123.031 205.808 123.031H206.376C206.913 123.031 207.361 123.478 207.361 124.016V141.483C207.361 142.051 206.913 142.469 206.376 142.469H205.808C205.271 142.469 204.823 142.051 204.823 141.483Z" fill="#CD181E"/>
<path d="M230.413 142.26L221.037 134.496C220.678 134.198 220.171 134.198 219.812 134.496L210.347 142.26C210.168 142.409 209.959 142.469 209.72 142.469H209.182C208.257 142.469 207.839 141.334 208.555 140.737L217.633 133.242C218.11 132.854 218.11 132.137 217.633 131.749L209.123 124.762C208.406 124.195 208.824 123.031 209.72 123.031H210.377C210.616 123.031 210.825 123.12 211.004 123.269L219.812 130.525C220.171 130.824 220.678 130.824 221.037 130.525L229.965 123.269C230.114 123.12 230.353 123.031 230.562 123.031H231.159C232.085 123.031 232.503 124.195 231.786 124.762L223.246 131.749C222.769 132.137 222.769 132.854 223.246 133.242L232.204 140.737C232.891 141.334 232.503 142.469 231.577 142.469H231.04C230.801 142.469 230.592 142.379 230.413 142.26Z" fill="#CD181E"/>
<path d="M98.9304 151.007L31.9775 152.183H31.8012C31.0958 152.3 29.5674 152.418 27.6276 152.477C12.5206 152.712 3.99716 146.834 3.76203 135.842C3.64447 130.258 7.23018 118.678 24.9236 94.8718C33.8585 82.8805 43.0286 72.4176 45.615 69.4786L46.0264 68.9496L45.2623 22.7481L41.1475 22.8068C36.7976 22.9244 33.1531 18.8685 33.0356 13.8134C33.0356 11.3446 33.7997 8.9934 35.3281 7.22999C36.7976 5.52535 38.7374 4.58488 40.8536 4.5261L84.8815 3.76194H84.999C89.3489 3.76194 92.8759 7.81779 92.9934 12.8141C92.9934 15.2829 92.2292 17.5754 90.7009 19.3388C89.2314 21.0434 87.2915 22.0427 85.1754 22.0427L82.2951 22.1015L83.0592 70.9481H86.5862L85.8808 25.5695C88.7611 25.3344 91.3475 23.9824 93.3461 21.69C95.4623 19.2212 96.5791 16.0471 96.5204 12.7554C96.4028 5.81927 91.23 0.235107 84.999 0.235107H84.8227L40.7948 0.999265C37.6794 1.05805 34.799 2.46877 32.6829 4.93755C30.5667 7.34755 29.4499 10.5217 29.5086 13.8722C29.6262 20.8083 34.799 26.3337 41.0299 26.3337H41.2063H41.7941L42.4995 67.6564C39.384 71.1832 30.6843 81.2935 22.1021 92.7557C7.40654 112.506 -2.61886e-05 127.025 0.235103 135.901C0.529014 148.538 10.4044 156.004 26.7459 156.004H27.6864C29.7438 155.945 31.2721 155.768 32.0951 155.71L98.9892 154.593L98.9304 151.007Z" fill="black"/>
<path d="M98.9892 151.007H98.9304L98.9892 154.593H232.484V151.007H98.9892Z" fill="black"/>
<path d="M58.3894 128.445C58.3894 128.445 73.0168 112.472 85.8722 108.453C98.7397 104.473 167.08 102.389 178.844 91.0837C199.194 71.4576 183.29 87.2781 193.263 73.2269C203.237 59.1758 199.135 63.0006 207.849 54.6825C216.552 46.3258 224.537 36.6252 224.354 35.496C223.987 33.2377 175.001 19.0154 153.568 30.8434C134.308 41.4839 137.868 33.76 113.463 48.5513C89.0588 63.3426 73.6743 83.5351 65.8003 97.5233C57.8757 111.485 50.7676 133.073 50.7676 133.073L58.3894 128.445Z" fill="#CD181E"/>
<path d="M228.547 34.27C228.4 33.9346 228.125 33.5969 227.669 33.3581C201.835 19.3138 168.238 22.8673 141.499 32.4979C112.442 42.9805 87.4445 62.7881 69.6767 87.9634C64.9193 94.7055 60.6686 101.713 56.9489 109.063C53.5596 115.843 50.6529 122.812 50.4971 130.446C50.4022 130.504 50.3241 130.571 50.263 130.646C39.8045 141.925 32.6352 155.863 29.7802 170.994C29.31 173.556 33.2456 174.487 33.7158 171.925C36.4308 157.431 43.2167 144.164 53.2312 133.363C53.3881 133.187 53.5063 133.023 53.5738 132.832C54.1046 132.497 54.4858 131.954 54.4881 131.148C54.4703 123.907 57.3191 117.295 60.5467 110.947C63.6296 104.813 67.1179 98.8914 70.9344 93.2063C79.0403 81.1798 88.828 70.1953 99.9913 60.8997C122.694 42.0213 151.228 30.1345 180.81 28.5142C195.357 27.7378 210.206 29.2826 223.364 35.7208C205.383 47.7413 198.692 70.2587 183.232 84.9234C160.088 106.864 124.885 97.8249 96.5247 104.572C84.4967 107.443 70.0131 115.064 60.7222 124.792C70.1157 106.175 89.0015 87.558 106.095 75.815C117.539 67.9574 129.779 61.2917 142.962 56.8311C156.365 52.2595 170.369 49.746 184.446 48.1421C187.023 47.845 186.894 43.7746 184.279 44.0837C169.881 45.7456 155.506 48.2905 141.755 52.9707C128.224 57.5399 115.649 64.3529 103.933 72.4229C83.7943 86.2196 66.0207 103.515 56.4709 126.375C55.2527 129.256 52.2923 130.902 54.1987 132.255C55.953 133.529 57.9481 130.829 59.4198 129.436C70.1632 119.34 83.3777 111.861 97.7316 108.433C112.677 104.862 128.192 105.69 143.366 104.209C157.156 102.907 171.416 99.7204 182.468 90.8832C190.845 84.1962 196.835 75.1618 202.605 66.2384C209.654 55.305 216.761 44.0145 228.335 37.3874C229.667 36.632 229.44 35.0927 228.547 34.27Z" fill="#050505"/>
</svg>
